HIERARCHY
ROOT Hips
{
 OFFSET 0.000000 0.000000 0.000000
 CHANNELS 6 Xposition Yposition Zposition Yrotation Xrotation Zrotation
 JOINT Chest
 {
  OFFSET 0.000000 9.585900 0.002600
  CHANNELS 3 Yrotation Xrotation Zrotation
  JOINT Chest2
  {
   OFFSET 0.000000 9.601200 -0.005300
   CHANNELS 3 Yrotation Xrotation Zrotation
   JOINT Chest3
   {
    OFFSET 0.000000 9.561800 0.000000
    CHANNELS 3 Yrotation Xrotation Zrotation
    JOINT Chest4
    {
     OFFSET 0.000000 9.552100 0.000000
     CHANNELS 3 Yrotation Xrotation Zrotation
     JOINT Neck
     {
      OFFSET 0.000000 14.453000 0.000000
      CHANNELS 3 Yrotation Xrotation Zrotation
      JOINT Head
      {
       OFFSET 0.000000 8.936500 -0.011300
       CHANNELS 3 Yrotation Xrotation Zrotation
       End Site
       {
        OFFSET 0.000000 17.073600 -0.006000
       }
      }
     }
     JOINT RightCollar
     {
      OFFSET -2.921100 9.558500 0.000000
      CHANNELS 3 Yrotation Xrotation Zrotation
      JOINT RightShoulder
      {
       OFFSET -13.519700 0.000000 0.000000
       CHANNELS 3 Yrotation Xrotation Zrotation
       JOINT RightElbow
       {
        OFFSET 0.000000 -29.696600 0.000000
        CHANNELS 3 Yrotation Xrotation Zrotation
        JOINT RightWrist
        {
         OFFSET 0.000000 -24.004700 0.000000
         CHANNELS 3 Yrotation Xrotation Zrotation
         End Site
         {
          OFFSET 0.000000 -17.728500 0.000000
         }
        }
       }
      }
     }
     JOINT LeftCollar
     {
      OFFSET 2.921100 9.558500 0.000000
      CHANNELS 3 Yrotation Xrotation Zrotation
      JOINT LeftShoulder
      {
       OFFSET 13.519700 0.000000 0.000000
       CHANNELS 3 Yrotation Xrotation Zrotation
       JOINT LeftElbow
       {
        OFFSET 0.000000 -29.696600 0.000000
        CHANNELS 3 Yrotation Xrotation Zrotation
        JOINT LeftWrist
        {
         OFFSET 0.000000 -24.004700 0.000000
         CHANNELS 3 Yrotation Xrotation Zrotation
         End Site
         {
          OFFSET 0.000000 -17.728500 0.000000
         }
        }
       }
      }
     }
    }
   }
  }
 }
 JOINT RightHip
 {
  OFFSET -7.771700 -0.012900 -0.001300
  CHANNELS 3 Yrotation Xrotation Zrotation
  JOINT RightKnee
  {
   OFFSET 0.000000 -40.869800 0.001200
   CHANNELS 3 Yrotation Xrotation Zrotation
   JOINT RightAnkle
   {
    OFFSET 0.000000 -39.717900 0.002100
    CHANNELS 3 Yrotation Xrotation Zrotation
    JOINT RightToe
    {
     OFFSET 0.000000 -4.965400 11.033500
     CHANNELS 3 Yrotation Xrotation Zrotation
     End Site
     {
      OFFSET 0.000000 -1.423100 5.872300
     }
    }
   }
  }
 }
 JOINT LeftHip
 {
  OFFSET 7.771700 -0.012900 -0.001300
  CHANNELS 3 Yrotation Xrotation Zrotation
  JOINT LeftKnee
  {
   OFFSET 0.000000 -40.869800 0.001200
   CHANNELS 3 Yrotation Xrotation Zrotation
   JOINT LeftAnkle
   {
    OFFSET 0.000000 -39.717900 0.002100
    CHANNELS 3 Yrotation Xrotation Zrotation
    JOINT LeftToe
    {
     OFFSET 0.000000 -4.965400 11.033500
     CHANNELS 3 Yrotation Xrotation Zrotation
     End Site
     {
      OFFSET 0.000000 -1.423100 5.872300
     }
    }
   }
  }
 }
}
MOTION
Frames: 6
Frame Time: 0.008333
13.356571 49.132727 52.100971 173.674626 -34.795792 -7.480445 6.184486 18.552642 5.722275 0.683140 2.299478 0.495253 1.157054 3.886385 0.934144 5.341950 16.032644 4.354170 -2.352254 17.036726 2.019156 -5.005311 -3.974550 4.579912 -2.127255 -2.873528 -3.921019 3.877803 -1.914882 0.273284 61.771547 -74.800174 -69.453561 1.612965 -10.823515 -3.665939 -9.638547 -0.314999 0.259185 4.702403 -2.916955 -1.037035 -97.217086 -69.813420 110.000116 13.560247 -11.437360 -3.790799 3.195712 -46.147765 10.461463 -109.599437 87.506229 -97.690799 -3.050641 -10.828315 -2.106133 -0.061938 0.777805 0.134715 -9.271873 -49.925174 15.635642 -146.683665 80.333234 -153.555744 2.467215 -15.106010 8.382094 -0.103000 -0.628025 0.004146
13.365442 49.209072 52.108432 173.711588 -34.714735 -7.503972 6.146109 18.496219 5.735723 0.689436 2.325608 0.517039 1.157514 3.882317 0.936574 5.333403 16.020203 4.339290 -2.334099 17.068880 2.054390 -4.996650 -3.918132 4.626198 -2.115896 -2.841051 -3.896246 3.877706 -1.899817 0.272532 61.810822 -74.833054 -69.496292 1.619955 -10.834033 -3.493938 -9.638999 -0.317358 0.252467 4.675223 -2.931216 -1.015038 -97.149468 -69.805354 109.953283 13.484895 -11.517942 -3.752224 3.035368 -46.197278 10.501376 -109.487970 87.418599 -97.599757 -2.958399 -10.947031 -2.176802 -0.051040 0.768137 0.113968 -9.330685 -49.966607 15.696042 -146.493473 80.379484 -153.401217 2.470629 -14.995302 8.396991 -0.127468 -0.717929 0.005383
13.377617 49.283303 52.113178 173.728794 -34.663317 -7.539930 6.143987 18.483631 5.804122 0.693328 2.348470 0.540808 1.150696 3.848898 0.900474 5.370836 16.059577 4.410758 -2.370104 17.046044 2.020627 -5.005237 -3.901678 4.634016 -2.134369 -2.851017 -3.938824 3.865637 -1.887784 0.281315 61.898971 -74.856566 -69.591213 1.618462 -10.824452 -3.297892 -9.659667 -0.281564 0.245530 4.634315 -3.022581 -1.056475 -96.950380 -69.703315 109.798128 13.491304 -11.599482 -3.747587 2.910188 -46.239347 10.553450 -109.472434 87.311131 -97.591314 -2.831323 -10.991985 -2.200922 -0.082727 0.713048 0.067501 -9.400054 -49.979446 15.782098 -146.260891 80.405327 -153.188198 2.497238 -14.872650 8.386205 -0.139982 -0.831015 0.010390
13.387559 49.351458 52.116526 173.760259 -34.621148 -7.576793 6.134925 18.476433 5.863908 0.681512 2.322508 0.511137 1.151205 3.849778 0.901430 5.402995 16.093360 4.468631 -2.361144 17.070104 2.044102 -5.043056 -3.933579 4.606802 -2.136723 -2.837793 -3.954945 3.848487 -1.891903 0.281209 61.938006 -74.878753 -69.627853 1.621816 -10.795806 -3.116095 -9.683685 -0.246047 0.251861 4.612656 -3.072760 -1.084275 -96.791468 -69.584679 109.693851 13.493679 -11.650342 -3.770402 2.836069 -46.280046 10.584013 -109.527988 87.249236 -97.642514 -2.798876 -11.007294 -2.193422 -0.097236 0.649818 0.028878 -9.480010 -49.986248 15.862025 -146.046050 80.425387 -152.996798 2.493844 -14.791028 8.377432 -0.127584 -0.903363 0.011610
13.393719 49.411875 52.118918 173.785042 -34.584814 -7.593882 6.123232 18.460867 5.887847 0.680842 2.331601 0.522497 1.152392 3.853295 0.905164 5.406246 16.100152 4.479671 -2.360363 17.080147 2.055911 -5.062688 -3.941795 4.603445 -2.143991 -2.846743 -3.976601 3.844597 -1.882284 0.292162 62.019423 -74.883267 -69.713245 1.613185 -10.744056 -2.949347 -9.707708 -0.216778 0.263502 4.606144 -3.094340 -1.103062 -96.730331 -69.495593 109.680448 13.456669 -11.666359 -3.813484 2.755091 -46.316994 10.587222 -109.908820 87.214824 -98.030965 -2.720632 -11.003973 -2.191404 -0.128298 0.607166 -0.010307 -9.524129 -49.998285 15.897410 -145.884200 80.449677 -152.850647 2.519322 -14.681569 8.380502 -0.156956 -1.003906 -0.007946
13.396409 49.464104 52.120727 173.835335 -34.547547 -7.611053 6.077555 18.436616 5.880528 0.694783 2.352448 0.544460 1.152796 3.856752 0.909026 5.400927 16.113519 4.494881 -2.378987 17.056243 2.035010 -5.058945 -3.917335 4.636622 -2.148081 -2.861967 -3.999176 3.833386 -1.896734 0.281007 62.003438 -74.892457 -69.686323 1.629618 -10.697655 -2.828395 -9.735095 -0.195149 0.272555 4.613216 -3.135665 -1.136075 -96.638649 -69.410051 109.620434 13.417354 -11.655967 -3.877595 2.705937 -46.352779 10.548409 -110.127325 87.103315 -98.231126 -2.602385 -11.007156 -2.196214 -0.129394 0.568274 -0.035454 -9.576218 -50.014696 15.913130 -145.732193 80.469038 -152.716131 2.526427 -14.625339 8.360001 -0.158359 -1.051628 -0.000972
